<?xml version="1.0" encoding="UTF-8" standalone="no"?>
<svg
   xmlns:dc="http://purl.org/dc/elements/1.1/"
   xmlns:cc="http://creativecommons.org/ns#"
   xmlns:rdf="http://www.w3.org/1999/02/22-rdf-syntax-ns#"
   xmlns:svg="http://www.w3.org/2000/svg"
   xmlns="http://www.w3.org/2000/svg"
   xmlns:sodipodi="http://sodipodi.sourceforge.net/DTD/sodipodi-0.dtd"
   xmlns:inkscape="http://www.inkscape.org/namespaces/inkscape"
   width="1000"
   height="1000"
   viewBox="0 0 264.58333 264.58334"
   version="1.1"
   id="svg8"
   inkscape:version="1.0.1 (3bc2e813f5, 2020-09-07)"
   sodipodi:docname="huhn.svg">
  <defs
     id="defs2">
    <inkscape:path-effect
       effect="powerstroke"
       id="path-effect2923"
       is_visible="true"
       lpeversion="1"
       offset_points="0,0.1322915"
       sort_points="true"
       interpolator_type="CubicBezierJohan"
       interpolator_beta="0.2"
       start_linecap_type="zerowidth"
       linejoin_type="extrp_arc"
       miter_limit="4"
       scale_width="1"
       end_linecap_type="zerowidth" />
    <inkscape:path-effect
       effect="bspline"
       id="path-effect2921"
       is_visible="true"
       lpeversion="1"
       weight="33.333333"
       steps="2"
       helper_size="0"
       apply_no_weight="true"
       apply_with_weight="true"
       only_selected="false" />
    <inkscape:path-effect
       effect="powerstroke"
       id="path-effect2917"
       is_visible="true"
       lpeversion="1"
       offset_points="0,0.1322915"
       sort_points="true"
       interpolator_type="CubicBezierJohan"
       interpolator_beta="0.2"
       start_linecap_type="zerowidth"
       linejoin_type="extrp_arc"
       miter_limit="4"
       scale_width="1"
       end_linecap_type="zerowidth" />
    <inkscape:path-effect
       effect="bspline"
       id="path-effect2915"
       is_visible="true"
       lpeversion="1"
       weight="33.333333"
       steps="2"
       helper_size="0"
       apply_no_weight="true"
       apply_with_weight="true"
       only_selected="false" />
    <inkscape:path-effect
       effect="powerstroke"
       id="path-effect2909"
       is_visible="true"
       lpeversion="1"
       offset_points="0,0.1322915"
       sort_points="true"
       interpolator_type="CubicBezierJohan"
       interpolator_beta="0.2"
       start_linecap_type="zerowidth"
       linejoin_type="extrp_arc"
       miter_limit="4"
       scale_width="1"
       end_linecap_type="zerowidth" />
    <inkscape:path-effect
       effect="bspline"
       id="path-effect2907"
       is_visible="true"
       lpeversion="1"
       weight="33.333333"
       steps="2"
       helper_size="0"
       apply_no_weight="true"
       apply_with_weight="true"
       only_selected="false" />
    <inkscape:path-effect
       effect="powerstroke"
       id="path-effect2899"
       is_visible="true"
       lpeversion="1"
       offset_points="0,0.1322915"
       sort_points="true"
       interpolator_type="CubicBezierJohan"
       interpolator_beta="0.2"
       start_linecap_type="zerowidth"
       linejoin_type="extrp_arc"
       miter_limit="4"
       scale_width="1"
       end_linecap_type="zerowidth" />
    <inkscape:path-effect
       effect="bspline"
       id="path-effect2897"
       is_visible="true"
       lpeversion="1"
       weight="33.333333"
       steps="2"
       helper_size="0"
       apply_no_weight="true"
       apply_with_weight="true"
       only_selected="false" />
    <inkscape:path-effect
       effect="powerstroke"
       id="path-effect2889"
       is_visible="true"
       lpeversion="1"
       offset_points="0,0.1322915"
       sort_points="true"
       interpolator_type="CubicBezierJohan"
       interpolator_beta="0.2"
       start_linecap_type="zerowidth"
       linejoin_type="extrp_arc"
       miter_limit="4"
       scale_width="1"
       end_linecap_type="zerowidth" />
    <inkscape:path-effect
       effect="bspline"
       id="path-effect2887"
       is_visible="true"
       lpeversion="1"
       weight="33.333333"
       steps="2"
       helper_size="0"
       apply_no_weight="true"
       apply_with_weight="true"
       only_selected="false" />
    <inkscape:path-effect
       effect="powerstroke"
       id="path-effect2883"
       is_visible="true"
       lpeversion="1"
       offset_points="0,0.1322915"
       sort_points="true"
       interpolator_type="CubicBezierJohan"
       interpolator_beta="0.2"
       start_linecap_type="zerowidth"
       linejoin_type="extrp_arc"
       miter_limit="4"
       scale_width="1"
       end_linecap_type="zerowidth" />
    <inkscape:path-effect
       effect="bspline"
       id="path-effect2881"
       is_visible="true"
       lpeversion="1"
       weight="33.333333"
       steps="2"
       helper_size="0"
       apply_no_weight="true"
       apply_with_weight="true"
       only_selected="false" />
    <inkscape:path-effect
       effect="powerstroke"
       id="path-effect2877"
       is_visible="true"
       lpeversion="1"
       offset_points="0,0.1322915"
       sort_points="true"
       interpolator_type="CubicBezierJohan"
       interpolator_beta="0.2"
       start_linecap_type="zerowidth"
       linejoin_type="extrp_arc"
       miter_limit="4"
       scale_width="1"
       end_linecap_type="zerowidth" />
    <inkscape:path-effect
       effect="bspline"
       id="path-effect2875"
       is_visible="true"
       lpeversion="1"
       weight="33.333333"
       steps="2"
       helper_size="0"
       apply_no_weight="true"
       apply_with_weight="true"
       only_selected="false" />
    <inkscape:path-effect
       effect="powerstroke"
       id="path-effect2869"
       is_visible="true"
       lpeversion="1"
       offset_points="0,0.1322915"
       sort_points="true"
       interpolator_type="CubicBezierJohan"
       interpolator_beta="0.2"
       start_linecap_type="zerowidth"
       linejoin_type="extrp_arc"
       miter_limit="4"
       scale_width="1"
       end_linecap_type="zerowidth" />
    <inkscape:path-effect
       effect="bspline"
       id="path-effect2867"
       is_visible="true"
       lpeversion="1"
       weight="33.333333"
       steps="2"
       helper_size="0"
       apply_no_weight="true"
       apply_with_weight="true"
       only_selected="false" />
    <inkscape:path-effect
       effect="powerstroke"
       id="path-effect2863"
       is_visible="true"
       lpeversion="1"
       offset_points="0,0.1322915"
       sort_points="true"
       interpolator_type="CubicBezierJohan"
       interpolator_beta="0.2"
       start_linecap_type="zerowidth"
       linejoin_type="extrp_arc"
       miter_limit="4"
       scale_width="1"
       end_linecap_type="zerowidth" />
    <inkscape:path-effect
       effect="bspline"
       id="path-effect2861"
       is_visible="true"
       lpeversion="1"
       weight="33.333333"
       steps="2"
       helper_size="0"
       apply_no_weight="true"
       apply_with_weight="true"
       only_selected="false" />
    <inkscape:path-effect
       effect="powerstroke"
       id="path-effect2855"
       is_visible="true"
       lpeversion="1"
       offset_points="0,0.1322915"
       sort_points="true"
       interpolator_type="CubicBezierJohan"
       interpolator_beta="0.2"
       start_linecap_type="zerowidth"
       linejoin_type="extrp_arc"
       miter_limit="4"
       scale_width="1"
       end_linecap_type="zerowidth" />
    <inkscape:path-effect
       effect="bspline"
       id="path-effect2853"
       is_visible="true"
       lpeversion="1"
       weight="33.333333"
       steps="2"
       helper_size="0"
       apply_no_weight="true"
       apply_with_weight="true"
       only_selected="false" />
  </defs>
  <sodipodi:namedview
     id="base"
     pagecolor="#ffffff"
     bordercolor="#666666"
     borderopacity="1.0"
     inkscape:pageopacity="0.0"
     inkscape:pageshadow="2"
     inkscape:zoom="0.7"
     inkscape:cx="628.41517"
     inkscape:cy="675.69563"
     inkscape:document-units="px"
     inkscape:current-layer="layer1"
     inkscape:document-rotation="0"
     showgrid="false"
     units="px"
     inkscape:snap-center="true"
     inkscape:window-width="1920"
     inkscape:window-height="1017"
     inkscape:window-x="-8"
     inkscape:window-y="-8"
     inkscape:window-maximized="1" />
  <metadata
     id="metadata5">
    <rdf:RDF>
      <cc:Work
         rdf:about="">
        <dc:format>image/svg+xml</dc:format>
        <dc:type
           rdf:resource="http://purl.org/dc/dcmitype/StillImage" />
        <dc:title></dc:title>
      </cc:Work>
    </rdf:RDF>
  </metadata>
  <g
     inkscape:label="Ebene 1"
     inkscape:groupmode="layer"
     id="layer1">
    <path
       id="path2849"
       style="fill:#000000;stroke:#000000;stroke-width:2.14075;stroke-linecap:round;paint-order:stroke fill markers"
       d="m 159.12037,34.516211 c -0.99003,0.01208 -1.94896,0.09848 -2.88088,0.241048 -0.9272,0.141843 -1.83048,0.339499 -2.71427,0.575427 -1.76238,0.470472 -3.41138,1.083058 -5.0043,1.692709 -0.78203,0.299301 -1.55646,0.600076 -2.3006,0.871531 -0.74305,0.271056 -1.47637,0.521114 -2.19472,0.722475 -0.7194,0.201637 -1.41677,0.353096 -2.09589,0.465979 -0.67669,0.112467 -1.33123,0.185867 -1.96599,0.232993 -1.26049,0.09359 -2.44923,0.08336 -3.57833,0.0705 -1.1371,-0.0129 -2.20225,-0.02828 -3.27125,0.04431 -0.52959,0.03599 -1.05471,0.09355 -1.58198,0.182632 -0.52634,0.08896 -1.05985,0.210111 -1.60668,0.376009 -0.54945,0.166694 -1.1201,0.38037 -1.71116,0.633171 -0.59073,0.252668 -1.19512,0.541342 -1.81211,0.855419 -1.23762,0.629988 -2.50807,1.353251 -3.80281,2.07946 -1.2957,0.726752 -2.61233,1.454648 -3.93128,2.085503 -0.66236,0.316799 -1.32868,0.610888 -1.99636,0.868846 -0.66941,0.258632 -1.34522,0.482649 -2.02529,0.658014 -0.68434,0.176468 -1.3622,0.300555 -2.02742,0.384736 -0.66715,0.08439 -1.31944,0.128873 -1.95258,0.146374 -1.2684,0.03506 -2.48456,-0.03684 -3.59103,-0.113471 -0.5668,-0.03925 -1.09459,-0.07888 -1.61304,-0.110119 -0.51805,-0.03122 -1.00381,-0.05251 -1.46197,-0.05371 -0.46129,-0.0012 -0.88126,0.01808 -1.26572,0.06379 -0.38374,0.04555 -0.73111,0.117115 -1.05112,0.22292 -0.32712,0.108156 -0.64946,0.259718 -0.97417,0.453224 -0.3269,0.194813 -0.64527,0.425471 -0.965714,0.685543 -0.64784,0.525786 -1.29152,1.160928 -2.00129,1.813568 -0.72839,0.669767 -1.52491,1.357187 -2.489796,1.994856 -0.490663,0.324273 -1.023455,0.63441 -1.610213,0.921891 -0.595041,0.291545 -1.244572,0.558847 -1.958937,0.792304 -0.722454,0.2361 -1.500608,0.434413 -2.288605,0.609671 -0.798441,0.177576 -1.627359,0.336264 -2.42979,0.486794 -0.829395,0.155588 -1.619585,0.30024 -2.391667,0.458598 -0.780807,0.160146 -1.507392,0.327164 -2.167893,0.515668 -0.671232,0.191571 -1.264752,0.40281 -1.766222,0.645926 -0.510835,0.247662 -0.932974,0.531067 -1.247366,0.865491 -0.322847,0.343442 -0.533815,0.742721 -0.603564,1.211285 -0.07108,0.480994 0.0069,1.03069 0.256953,1.659805 0.25712,0.646855 0.695238,1.374016 1.282664,2.158691 0.606098,0.80962 1.370359,1.678909 2.260369,2.585729 1.882083,1.917654 4.315987,3.994099 7.040176,6.065817 5.384873,4.095104 11.626845,7.976791 17.716575,11.24398 A 65.583161,68.019109 0 0 0 88.85907,113.03007 c -4.183449,-0.0292 -9.54899,-0.012 -14.688154,0.54454 -4.405474,0.47702 -9.204816,1.38874 -14.225072,3.31626 -4.483934,1.7216 -9.21684,4.2823 -13.433021,7.26569 -1.965787,1.391 -3.796112,2.85912 -5.371374,4.32745 -1.525807,1.42222 -2.81403,2.84664 -3.739277,4.18779 -0.902158,1.30767 -1.462072,2.54092 -1.639861,3.67816 -0.08762,0.56048 -0.08258,1.09773 0.02047,1.60811 0.10222,0.5062 0.300253,0.98308 0.5958,1.42749 0.293148,0.4408 0.68081,0.84801 1.162654,1.21867 0.478537,0.36811 1.049677,0.7004 1.713984,0.99642 1.317741,0.58719 3.005745,1.03213 5.069943,1.3214 0.03614,0.005 0.07446,0.009 0.110833,0.0141 -0.188892,0.24534 -0.37036,0.48871 -0.535799,0.72851 -0.884759,1.28246 -1.417262,2.46885 -1.584797,3.54052 -0.08233,0.52668 -0.07617,1.02457 0.01835,1.49262 0.09364,0.46374 0.274884,0.9004 0.546385,1.30864 0.269604,0.40541 0.629349,0.78478 1.084299,1.13474 0.452153,0.34782 0.998007,0.66645 1.640566,0.95278 1.276108,0.56864 2.927097,1.00637 4.968998,1.29253 2.02782,0.28417 4.431305,0.41786 7.039471,0.44852 2.597803,0.0306 5.387075,-0.041 8.190128,-0.16383 2.801738,-0.12277 5.61202,-0.29699 8.245189,-0.47068 1.310538,-0.0864 2.570175,-0.17205 3.766103,-0.25179 -0.23911,0.58948 -0.470279,1.21018 -0.692513,1.87064 -0.639736,1.90124 -1.189136,4.03488 -1.66386,6.35856 -0.438281,2.1453 -0.797994,4.37685 -1.105479,6.62916 -0.559994,4.10191 -0.931359,8.15581 -0.894406,11.70258 0.01745,1.67383 0.125602,3.24337 0.350138,4.66049 0.218273,1.37755 0.546924,2.61528 1.01159,3.66742 0.455694,1.03182 1.040587,1.88116 1.732337,2.5629 0.681236,0.67139 1.46054,1.17449 2.309784,1.52821 0.840361,0.35001 1.744185,0.55201 2.680391,0.62914 0.931373,0.0768 1.892528,0.0298 2.852638,-0.11549 0.960559,-0.14538 1.921826,-0.38989 2.875228,-0.78358 0.958358,-0.39572 1.903414,-0.94023 2.827931,-1.67994 0.933603,-0.74698 1.841201,-1.68888 2.717806,-2.86774 0.890083,-1.19698 1.743983,-2.63213 2.558266,-4.34424 0.831947,-1.74923 1.617407,-3.77661 2.288597,-5.93958 0.34757,-1.12006 0.66308,-2.27272 0.93959,-3.44182 a 65.583161,68.019109 0 0 0 52.896274,27.80916 65.583161,68.019109 0 0 0 65.58314,-68.0192 65.583161,68.019109 0 0 0 -32.86216,-58.948007 c 0.37284,-0.758686 0.7177,-1.525863 1.02642,-2.301706 1.26939,-3.190172 1.9753,-6.507085 1.92434,-9.746668 -0.0981,-6.234584 -3.00713,-12.135122 -7.33102,-16.966027 -2.07704,-2.320593 -4.4572,-4.365146 -6.93499,-6.028214 -1.22011,-0.818929 -2.46101,-1.543182 -3.6948,-2.159361 -1.22339,-0.610998 -2.43689,-1.114043 -3.61151,-1.496648 -1.16488,-0.379432 -2.28871,-0.639494 -3.3722,-0.801033 -1.07484,-0.160252 -2.10901,-0.223717 -3.10606,-0.211503 z" />
    <path
       style="fill:#000000;fill-rule:nonzero;stroke:none;stroke-width:0.264583px;stroke-linecap:butt;stroke-linejoin:miter;stroke-opacity:1"
       d="m -38.931548,116.79464 c 0,0 -0.113439,-0.0681 -0.113439,-0.0681 -0.226785,0.37797 -0.793703,1.57996 -1.020488,1.95794 0.226785,-0.37798 1.020581,-1.44384 1.247366,-1.82182 0,0 -0.113439,-0.0681 -0.113439,-0.0681 z"
       id="path2913"
       inkscape:path-effect="#path-effect2915;#path-effect2917"
       inkscape:original-d="m -38.931548,116.79464 c -0.377711,0.63023 -0.755687,1.26019 -1.133927,1.88988" />
  </g>
</svg>
