<?xml version="1.0" encoding="UTF-8" standalone="no"?>
<svg
   xmlns:dc="http://purl.org/dc/elements/1.1/"
   xmlns:cc="http://creativecommons.org/ns#"
   xmlns:rdf="http://www.w3.org/1999/02/22-rdf-syntax-ns#"
   xmlns:svg="http://www.w3.org/2000/svg"
   xmlns="http://www.w3.org/2000/svg"
   xmlns:sodipodi="http://sodipodi.sourceforge.net/DTD/sodipodi-0.dtd"
   xmlns:inkscape="http://www.inkscape.org/namespaces/inkscape"
   width="1000"
   height="1000"
   viewBox="0 0 264.58333 264.58334"
   version="1.1"
   id="svg8"
   inkscape:version="1.0.1 (3bc2e813f5, 2020-09-07)"
   sodipodi:docname="tankstelle.svg">
  <defs
     id="defs2">
    <inkscape:path-effect
       effect="fillet_chamfer"
       id="path-effect1839"
       is_visible="true"
       lpeversion="1"
       satellites_param="F,0,0,1,0,1,0,1 @ F,0,0,1,0,1,0,1 @ F,0,0,1,0,1,0,1 @ F,0,0,1,0,1,0,1 @ F,0,0,1,0,1,0,1 @ F,0,0,1,0,1,0,1 @ F,0,0,1,0,1,0,1 @ F,0,0,1,0,1,0,1 @ F,0,0,1,0,1,0,1 @ F,0,0,1,0,1,0,1 @ F,0,0,1,0,1,0,1 | F,0,0,1,0,1,0,1 @ F,0,0,1,0,1,0,1 @ F,0,0,1,0,1,0,1 @ F,0,0,1,0,1,0,1 @ F,0,0,1,0,1,0,1 @ F,0,0,1,0,1,0,1 @ F,0,0,1,0,1,0,1 @ F,0,0,1,0,1,0,1 @ F,0,0,1,0,1,0,1 @ F,0,0,1,0,1,0,1 @ F,0,0,1,0,1,0,1 @ F,0,0,1,0,1,0,1 @ F,0,0,1,0,1,0,1 @ F,0,0,1,0,1,0,1 @ F,0,0,1,0,1,0,1 @ F,0,0,1,0,1,0,1 @ F,0,0,1,0,1,0,1"
       unit="px"
       method="auto"
       mode="F"
       radius="1"
       chamfer_steps="1"
       flexible="false"
       use_knot_distance="true"
       apply_no_radius="true"
       apply_with_radius="true"
       only_selected="false"
       hide_knots="false" />
    <inkscape:path-effect
       effect="fillet_chamfer"
       id="path-effect1837"
       is_visible="true"
       lpeversion="1"
       satellites_param="F,0,0,1,0,3,0,1 @ F,0,0,1,0,3,0,1 @ F,0,0,1,0,3,0,1 @ F,0,0,1,0,3,0,1"
       unit="px"
       method="auto"
       mode="F"
       radius="3"
       chamfer_steps="1"
       flexible="false"
       use_knot_distance="true"
       apply_no_radius="true"
       apply_with_radius="true"
       only_selected="false"
       hide_knots="false" />
    <inkscape:path-effect
       effect="fillet_chamfer"
       id="path-effect1835"
       is_visible="true"
       lpeversion="1"
       satellites_param="F,0,0,1,0,6,0,1 @ F,0,0,1,0,6,0,1 @ F,0,0,1,0,5.7142858,0,1 @ F,0,0,1,0,6,0,1 | F,0,0,1,0,6,0,1 @ F,0,0,1,0,6,0,1 @ F,0,0,1,0,6,0,1 @ F,0,0,1,0,6,0,1"
       unit="px"
       method="auto"
       mode="F"
       radius="6"
       chamfer_steps="1"
       flexible="false"
       use_knot_distance="true"
       apply_no_radius="true"
       apply_with_radius="true"
       only_selected="false"
       hide_knots="false" />
    <marker
       style="overflow:visible"
       id="marker1792"
       refX="0.0"
       refY="0.0"
       orient="auto"
       inkscape:stockid="Arrow1Lstart"
       inkscape:isstock="true">
      <path
         transform="scale(0.8) translate(12.5,0)"
         style="fill-rule:evenodd;stroke:#000000;stroke-width:1pt;stroke-opacity:1;fill:#000000;fill-opacity:1"
         d="M 0.0,0.0 L 5.0,-5.0 L -12.5,0.0 L 5.0,5.0 L 0.0,0.0 z "
         id="path1790" />
    </marker>
    <marker
       style="overflow:visible"
       id="marker1764"
       refX="0.0"
       refY="0.0"
       orient="auto"
       inkscape:stockid="Arrow1Lstart"
       inkscape:isstock="true">
      <path
         transform="scale(0.8) translate(12.5,0)"
         style="fill-rule:evenodd;stroke:#000000;stroke-width:1.0pt"
         d="M 0.0,0.0 L 5.0,-5.0 L -12.5,0.0 L 5.0,5.0 L 0.0,0.0 z "
         id="path1762" />
    </marker>
    <marker
       style="overflow:visible"
       id="marker1742"
       refX="0.0"
       refY="0.0"
       orient="auto"
       inkscape:stockid="Arrow1Lstart"
       inkscape:isstock="true">
      <path
         transform="scale(0.8) translate(12.5,0)"
         style="fill-rule:evenodd;stroke:#000000;stroke-width:1.0pt"
         d="M 0.0,0.0 L 5.0,-5.0 L -12.5,0.0 L 5.0,5.0 L 0.0,0.0 z "
         id="path1740" />
    </marker>
    <marker
       style="overflow:visible"
       id="marker1726"
       refX="0.0"
       refY="0.0"
       orient="auto"
       inkscape:stockid="Arrow1Lstart"
       inkscape:isstock="true">
      <path
         transform="scale(0.8) translate(12.5,0)"
         style="fill-rule:evenodd;stroke:#000000;stroke-width:1.0pt"
         d="M 0.0,0.0 L 5.0,-5.0 L -12.5,0.0 L 5.0,5.0 L 0.0,0.0 z "
         id="path1724" />
    </marker>
    <marker
       style="overflow:visible"
       id="Arrow1Lstart"
       refX="0.0"
       refY="0.0"
       orient="auto"
       inkscape:stockid="Arrow1Lstart"
       inkscape:isstock="true">
      <path
         transform="scale(0.8) translate(12.5,0)"
         style="fill-rule:evenodd;stroke:#000000;stroke-width:1.0pt"
         d="M 0.0,0.0 L 5.0,-5.0 L -12.5,0.0 L 5.0,5.0 L 0.0,0.0 z "
         id="path1454" />
    </marker>
    <inkscape:path-effect
       effect="powerstroke"
       id="path-effect1436"
       is_visible="true"
       lpeversion="1"
       offset_points="0,0.1322915"
       sort_points="true"
       interpolator_type="CubicBezierJohan"
       interpolator_beta="0.2"
       start_linecap_type="zerowidth"
       linejoin_type="extrp_arc"
       miter_limit="4"
       scale_width="1"
       end_linecap_type="zerowidth" />
    <inkscape:path-effect
       effect="powerstroke"
       id="path-effect1430"
       is_visible="true"
       lpeversion="1"
       offset_points="0,0.1322915"
       sort_points="true"
       interpolator_type="CubicBezierJohan"
       interpolator_beta="0.2"
       start_linecap_type="zerowidth"
       linejoin_type="extrp_arc"
       miter_limit="4"
       scale_width="1"
       end_linecap_type="zerowidth" />
    <inkscape:path-effect
       effect="powerstroke"
       id="path-effect1413"
       is_visible="true"
       lpeversion="1"
       offset_points="0,0.1322915"
       sort_points="true"
       interpolator_type="CubicBezierJohan"
       interpolator_beta="0.2"
       start_linecap_type="zerowidth"
       linejoin_type="extrp_arc"
       miter_limit="4"
       scale_width="1"
       end_linecap_type="zerowidth" />
    <inkscape:path-effect
       effect="bspline"
       id="path-effect1411"
       is_visible="true"
       lpeversion="1"
       weight="33.333333"
       steps="2"
       helper_size="0"
       apply_no_weight="true"
       apply_with_weight="true"
       only_selected="false" />
  </defs>
  <sodipodi:namedview
     id="base"
     pagecolor="#ffffff"
     bordercolor="#666666"
     borderopacity="1.0"
     inkscape:pageopacity="0.0"
     inkscape:pageshadow="2"
     inkscape:zoom="0.7"
     inkscape:cx="959.99499"
     inkscape:cy="537.14836"
     inkscape:document-units="px"
     inkscape:current-layer="g1452"
     inkscape:document-rotation="0"
     showgrid="false"
     units="px"
     showguides="true"
     inkscape:guide-bbox="true"
     inkscape:snap-center="true"
     inkscape:snap-object-midpoints="false"
     inkscape:window-width="1920"
     inkscape:window-height="1017"
     inkscape:window-x="-8"
     inkscape:window-y="-8"
     inkscape:window-maximized="1">
    <sodipodi:guide
       position="-161.77381,312.96429"
       orientation="0.70710678,-0.70710678"
       id="guide1399" />
    <sodipodi:guide
       position="132.29167,195.03572"
       orientation="-1,0"
       id="guide1401"
       inkscape:label=""
       inkscape:locked="false"
       inkscape:color="rgb(0,0,255)" />
    <sodipodi:guide
       position="213.55655,159.50596"
       orientation="1,0"
       id="guide1432" />
  </sodipodi:namedview>
  <metadata
     id="metadata5">
    <rdf:RDF>
      <cc:Work
         rdf:about="">
        <dc:format>image/svg+xml</dc:format>
        <dc:type
           rdf:resource="http://purl.org/dc/dcmitype/StillImage" />
        <dc:title />
      </cc:Work>
    </rdf:RDF>
  </metadata>
  <g
     inkscape:label="Ebene 1"
     inkscape:groupmode="layer"
     id="layer1">
    <g
       id="g1452"
       transform="translate(5.1965763,-0.37797617)">
      <path
         id="rect1403"
         style="opacity:0.998;fill:#000000;stroke:#000000;stroke-width:6.28399;stroke-linecap:round;paint-order:stroke fill markers"
         d="m 268.83594,146.33398 v 677.11524 a 6,6 45 0 0 6,6 l 373.4693,0 a 5.7142858,5.7142858 135 0 0 5.71429,-5.71429 V 146.33398 a 6,6 45 0 0 -6,-6 H 274.83594 a 6,6 135 0 0 -6,6 z m 66.1875,56.26172 252.81054,0 a 6,6 45 0 1 6,6 v 216.38086 a 6,6 135 0 1 -6,6 l -252.81054,0 a 6,6 45 0 1 -6,-6 V 208.5957 a 6,6 135 0 1 6,-6 z"
         transform="scale(0.26458333)"
         inkscape:path-effect="#path-effect1835"
         inkscape:original-d="M 268.83594,140.33398 V 829.44922 H 654.01953 V 140.33398 Z m 60.1875,62.26172 H 593.83398 V 430.97656 H 329.02344 Z" />
      <path
         id="rect1405"
         style="opacity:0.998;fill:#000000;stroke:#000000;stroke-width:0.513366;stroke-linecap:round;paint-order:stroke fill markers"
         d="M 53.367888,216.88302 H 190.80473 a 3,3 45 0 1 3,3 v 6.35058 a 3,3 135 0 1 -3,3 H 53.367888 a 3,3 45 0 1 -3,-3 v -6.35058 a 3,3 135 0 1 3,-3 z"
         inkscape:path-effect="#path-effect1837"
         inkscape:original-d="M 50.367888,216.88302 H 193.80473 V 229.2336 H 50.367888 Z" />
      <path
         id="path1409"
         style="fill:#000000;fill-rule:nonzero;stroke:#000000;stroke-width:6.74687504;stroke-linecap:butt;stroke-linejoin:miter;stroke-miterlimit:4;stroke-dasharray:none;stroke-opacity:1"
         d="m 190.8725,67.693101 c 1.70789,2.780199 4.51927,7.391939 7.39433,12.109559 0.28741,0.471602 0.52621,1.301593 0.53337,1.853831 0.0758,5.846084 0.15047,11.565788 0.20669,14.997131 0.009,0.552206 -0.43069,0.999847 -0.98297,0.999847 h -8.02523 a 1.0286367,1.0286367 135.80875 0 0 -1.02823,0.999602 l -0.32182,11.396889 a 1.8691056,1.8691056 63.470032 0 0 0.78768,1.57778 l 9.03627,6.40338 a 0.51699448,0.51699448 152.66129 0 0 0.81591,-0.42182 V 98.653469 c 0,-0.552285 -0.008,-1.447644 -0.0186,-1.999827 -0.0661,-3.434389 -0.19548,-9.164058 -0.32821,-15.017484 -0.0125,-0.552139 -0.0229,-1.008063 -0.0232,-1.018336 l -0.009,-0.01498 c -3.45543,-5.542104 -6.31684,-10.132688 -8.03523,-12.910643 -0.29054,-0.469683 -0.52561,-0.850802 -0.52578,-0.8508 z m 8.45508,51.915439 c 0.30093,7.50963 1.06075,23.89485 -0.81863,37.56743 -0.0751,0.54665 -0.20655,1.43201 -0.29298,1.97749 -0.88873,5.60894 -2.26361,11.23234 -4.26801,16.31806 -0.20249,0.51379 -0.54551,1.341 -0.76665,1.84707 -0.91393,2.09147 -1.93439,4.05352 -3.06759,5.8544 -0.29413,0.46743 -0.79145,1.2123 -1.11142,1.66244 -1.19602,1.68259 -2.49342,3.18049 -3.89392,4.47608 -0.40538,0.37502 -1.08727,0.95606 -1.52216,1.29643 -1.50941,1.18138 -3.11378,2.14933 -4.76685,2.9531 -0.49665,0.24149 -1.31461,0.60645 -1.82552,0.81613 -1.82556,0.74919 -3.6986,1.32996 -5.5489,1.79365 -0.53569,0.13425 -1.40841,0.33504 -1.94884,0.44881 -5.07871,1.06915 -11.02842,1.5921 -14.58132,1.90168 -0.54988,0.0479 -0.99028,0.14624 -0.98371,0.21902 l 0.0119,0.13177 c 4.55322,-0.399 10.50537,-0.9313 15.60718,-2.0199 0.54001,-0.11522 1.4121,-0.31835 1.94744,-0.45405 1.86093,-0.47173 3.74627,-1.06253 5.58442,-1.82417 0.51019,-0.2114 1.32696,-0.579 1.82289,-0.82199 1.66652,-0.81654 3.28411,-1.79963 4.80507,-2.99918 0.43361,-0.34198 1.1135,-0.92535 1.51769,-1.30165 1.40936,-1.3121 2.71191,-2.827 3.91028,-4.52545 0.31839,-0.45125 0.81326,-1.19776 1.10593,-1.6661 1.13333,-1.8136 2.15214,-3.78738 3.0628,-5.88918 0.21956,-0.50675 0.56004,-1.33502 0.761,-1.84944 1.99355,-5.10322 3.35395,-10.73976 4.22803,-16.35578 0.0849,-0.5457 0.21399,-1.43179 0.28771,-1.97913 1.84023,-13.66365 1.04743,-30.08647 0.74437,-37.57843 -0.0223,-0.55135 -0.0393,-0.99835 -0.0393,-0.99835 z"
         inkscape:path-effect="#path-effect1839"
         inkscape:original-d="m 190.34847,66.841399 c 1.69929,2.756609 5.06833,8.28462 8.43876,13.815176 0.0882,6.799641 0.17608,13.594934 0.23669,16.996894 h -10.02523 l -0.37828,13.396091 10.66809,7.55974 V 97.653469 c -0.0607,-3.403706 -0.21511,-10.210223 -0.36949,-17.017047 l -5.3e-4,-0.0186 -0.009,-0.01498 c -3.42992,-5.501113 -6.85981,-11.002221 -8.5607,-13.761447 z m 8.94003,51.767901 c 0.2688,7.12314 1.23139,25.05706 -0.92088,39.55573 -0.93188,6.27753 -2.46294,12.61388 -4.79454,18.23351 -1.15058,2.77309 -2.48045,5.33433 -4.00337,7.61349 -1.5545,2.32644 -3.28947,4.32826 -5.20898,5.96346 -1.99858,1.70256 -4.18616,2.99776 -6.44767,4.00802 -2.42978,1.08543 -4.96676,1.85086 -7.44037,2.42104 -5.77107,1.33024 -13.01307,1.88929 -16.55351,2.204 l 0.0119,0.13178 0.0119,0.13177 c 3.5451,-0.31512 10.78311,-0.88419 16.58297,-2.23759 2.48252,-0.57929 5.0315,-1.35668 7.47396,-2.45721 2.27364,-1.02448 4.47366,-2.33667 6.4823,-4.0597 1.92871,-1.65448 3.66674,-3.67543 5.22035,-6.01721 1.52202,-2.29415 2.84836,-4.86818 3.99304,-7.65121 2.31939,-5.63905 3.8337,-11.98916 4.74906,-18.27278 2.1106,-14.48832 1.1117,-32.46974 0.84388,-39.5671 z" />
    </g>
  </g>
</svg>
