<?xml version="1.0" encoding="UTF-8" standalone="no"?>
<svg
   xmlns:dc="http://purl.org/dc/elements/1.1/"
   xmlns:cc="http://creativecommons.org/ns#"
   xmlns:rdf="http://www.w3.org/1999/02/22-rdf-syntax-ns#"
   xmlns:svg="http://www.w3.org/2000/svg"
   xmlns="http://www.w3.org/2000/svg"
   xmlns:sodipodi="http://sodipodi.sourceforge.net/DTD/sodipodi-0.dtd"
   xmlns:inkscape="http://www.inkscape.org/namespaces/inkscape"
   width="1000"
   height="1000"
   viewBox="0 0 264.58333 264.58334"
   version="1.1"
   id="svg8"
   inkscape:version="1.0.1 (3bc2e813f5, 2020-09-07)"
   sodipodi:docname="tomate.svg">
  <defs
     id="defs2">
    <inkscape:path-effect
       effect="powerstroke"
       id="path-effect1421"
       is_visible="true"
       lpeversion="1"
       offset_points="0,0.235147"
       sort_points="true"
       interpolator_type="CubicBezierJohan"
       interpolator_beta="0.2"
       start_linecap_type="zerowidth"
       linejoin_type="extrp_arc"
       miter_limit="4"
       scale_width="1"
       end_linecap_type="zerowidth" />
    <inkscape:path-effect
       effect="bspline"
       id="path-effect1419"
       is_visible="true"
       lpeversion="1"
       weight="33.333333"
       steps="2"
       helper_size="0"
       apply_no_weight="true"
       apply_with_weight="true"
       only_selected="false" />
    <inkscape:path-effect
       effect="powerstroke"
       id="path-effect1415"
       is_visible="true"
       lpeversion="1"
       offset_points="0,0.235147"
       sort_points="true"
       interpolator_type="CubicBezierJohan"
       interpolator_beta="0.2"
       start_linecap_type="zerowidth"
       linejoin_type="extrp_arc"
       miter_limit="4"
       scale_width="1"
       end_linecap_type="zerowidth" />
    <inkscape:path-effect
       effect="powerstroke"
       id="path-effect1405"
       is_visible="true"
       lpeversion="1"
       offset_points="0,0.235147"
       sort_points="true"
       interpolator_type="CubicBezierJohan"
       interpolator_beta="0.2"
       start_linecap_type="zerowidth"
       linejoin_type="extrp_arc"
       miter_limit="4"
       scale_width="1"
       end_linecap_type="zerowidth" />
    <inkscape:path-effect
       effect="bspline"
       id="path-effect1403"
       is_visible="true"
       lpeversion="1"
       weight="33.333333"
       steps="2"
       helper_size="0"
       apply_no_weight="true"
       apply_with_weight="true"
       only_selected="false" />
  </defs>
  <sodipodi:namedview
     id="base"
     pagecolor="#ffffff"
     bordercolor="#666666"
     borderopacity="1.0"
     inkscape:pageopacity="0.0"
     inkscape:pageshadow="2"
     inkscape:zoom="0.50021951"
     inkscape:cx="401.4886"
     inkscape:cy="577.44275"
     inkscape:document-units="px"
     inkscape:current-layer="layer1"
     inkscape:document-rotation="0"
     showgrid="false"
     units="px"
     inkscape:window-width="1920"
     inkscape:window-height="1017"
     inkscape:window-x="-8"
     inkscape:window-y="-8"
     inkscape:window-maximized="1" />
  <metadata
     id="metadata5">
    <rdf:RDF>
      <cc:Work
         rdf:about="">
        <dc:format>image/svg+xml</dc:format>
        <dc:type
           rdf:resource="http://purl.org/dc/dcmitype/StillImage" />
        <dc:title></dc:title>
      </cc:Work>
    </rdf:RDF>
  </metadata>
  <g
     inkscape:label="Ebene 1"
     inkscape:groupmode="layer"
     id="layer1">
    <path
       id="path1408"
       style="opacity:0.998;fill:#000000;fill-opacity:1;stroke:#000000;stroke-width:1.3483;stroke-linecap:round;stroke-opacity:0;paint-order:stroke fill markers"
       d="m 144.32813,26.169676 c -1.2108,-0.01516 -2.46544,0.07531 -3.45751,0.256884 -1.98416,0.363153 -2.9176,1.089401 -3.15104,11.016279 -0.23344,9.926876 0.23375,29.053816 -0.11636,36.55937 -0.35007,7.505554 -1.51713,3.389894 -2.56749,-0.483967 -1.05035,-3.873863 -1.98403,-7.505303 -4.55141,-11.500247 -2.56738,-3.994944 -6.76899,-8.35284 -11.7873,-11.016277 -5.0183,-2.663439 -10.85287,-3.632389 -14.93764,-3.874574 -4.084776,-0.242184 -6.419446,0.242204 -5.135646,1.573957 1.2838,1.331753 6.185836,3.510716 10.503896,6.900432 4.31806,3.389713 8.05208,7.989837 10.03595,11.621589 1.98387,3.631756 2.21721,6.294797 0,5.568461 -2.21719,-0.726341 -6.88498,-4.841666 -12.37015,-6.657738 -5.48518,-1.816077 -11.787097,-1.331819 -15.521876,-0.363331 -3.734775,0.968485 -4.901881,2.42057 -1.750647,4.841798 3.15123,2.421226 10.620323,5.810968 17.272523,9.926999 2.41145,1.492076 4.6753,3.056971 6.86645,4.584199 -28.170739,-0.826997 -71.171181,8.007848 -71.171174,45.17001 0,45.93135 22.381711,91.15608 83.677474,91.15608 61.29577,0 87.87795,-45.22473 87.87795,-91.15608 2e-5,-32.985399 -29.23746,-37.510647 -55.71361,-39.862696 1.04202,-0.989601 2.18979,-2.092097 3.54714,-3.354414 3.38446,-3.14751 7.81916,-7.021215 10.85347,-10.047633 3.03433,-3.026423 4.66763,-5.205339 2.68379,-5.326475 -1.98385,-0.121132 -7.5851,1.815293 -11.78661,4.236485 -4.20152,2.421187 -7.00282,5.326784 -7.11959,4.600524 -0.11676,-0.726263 2.45102,-5.084509 5.25195,-9.56367 2.80094,-4.47916 5.835,-9.078904 8.51929,-12.347543 2.68428,-3.268637 5.01845,-5.20584 3.85156,-5.811151 -1.1669,-0.605308 -5.83511,0.120857 -10.03665,2.299907 -4.20154,2.179046 -7.9362,5.810806 -10.73718,10.774297 -2.80098,4.963491 -4.66815,11.258138 -5.13496,5.326471 -0.46682,-5.931663 0.46733,-24.089809 0.81751,-33.653439 0.35018,-9.563626 0.11636,-10.531828 -1.51736,-11.016277 -0.81687,-0.242226 -1.98402,-0.363069 -3.19482,-0.37823 z" />
  </g>
</svg>
