<?xml version="1.0" encoding="UTF-8" standalone="no"?>
<svg
   xmlns:dc="http://purl.org/dc/elements/1.1/"
   xmlns:cc="http://creativecommons.org/ns#"
   xmlns:rdf="http://www.w3.org/1999/02/22-rdf-syntax-ns#"
   xmlns:svg="http://www.w3.org/2000/svg"
   xmlns="http://www.w3.org/2000/svg"
   xmlns:sodipodi="http://sodipodi.sourceforge.net/DTD/sodipodi-0.dtd"
   xmlns:inkscape="http://www.inkscape.org/namespaces/inkscape"
   width="1000"
   height="1000"
   viewBox="0 0 264.58333 264.58334"
   version="1.1"
   id="svg8"
   inkscape:version="1.0.1 (3bc2e813f5, 2020-09-07)"
   sodipodi:docname="zahnrad.svg">
  <defs
     id="defs2">
    <inkscape:path-effect
       effect="fillet_chamfer"
       id="path-effect1434"
       is_visible="true"
       lpeversion="1"
       satellites_param="F,0,0,1,0,12,0,1 @ F,0,0,1,0,12,0,1 @ F,0,0,1,0,12,0,1 @ F,0,0,1,0,12,0,1 @ F,0,0,1,0,12,0,1 @ F,0,0,1,0,12,0,1 @ F,0,0,1,0,12,0,1 @ F,0,0,1,0,12,0,1 @ F,0,0,1,0,12,0,1 @ F,0,0,1,0,12,0,1 @ F,0,0,1,0,12,0,1 @ F,0,0,1,0,12,0,1 @ F,0,0,1,0,12,0,1 @ F,0,0,1,0,12,0,1 @ F,0,0,1,0,12,0,1 @ F,0,0,1,0,12,0,1 @ F,0,0,1,0,12,0,1 @ F,0,0,1,0,12,0,1 @ F,0,0,1,0,12,0,1 @ F,0,0,1,0,12,0,1"
       unit="px"
       method="auto"
       mode="F"
       radius="12"
       chamfer_steps="1"
       flexible="false"
       use_knot_distance="true"
       apply_no_radius="true"
       apply_with_radius="true"
       only_selected="false"
       hide_knots="false" />
    <inkscape:path-effect
       effect="fillet_chamfer"
       id="path-effect1430"
       is_visible="true"
       lpeversion="1"
       satellites_param="F,0,0,1,0,0,0,1 @ F,0,0,1,0,0,0,1 @ F,0,0,1,0,0,0,1 @ F,0,0,1,0,0,0,1 @ F,0,0,1,0,0,0,1 @ F,0,0,1,0,0,0,1 @ F,0,0,1,0,0,0,1 @ F,0,0,1,0,0,0,1 @ F,0,0,1,0,0,0,1 @ F,0,0,1,0,0,0,1 @ F,0,0,1,0,0,0,1 @ F,0,0,1,0,0,0,1 @ F,0,0,1,0,0,0,1 @ F,0,0,1,0,0,0,1 @ F,0,0,1,0,0,0,1 @ F,0,0,1,0,0,0,1 @ F,0,0,1,0,0,0,1 @ F,0,0,1,0,0,0,1 @ F,0,0,1,0,0,0,1 @ F,0,0,1,0,0,0,1"
       unit="px"
       method="auto"
       mode="F"
       radius="0"
       chamfer_steps="1"
       flexible="false"
       use_knot_distance="true"
       apply_no_radius="true"
       apply_with_radius="true"
       only_selected="false"
       hide_knots="false" />
    <inkscape:path-effect
       effect="fillet_chamfer"
       id="path-effect1428"
       is_visible="true"
       lpeversion="1"
       satellites_param="F,0,0,1,0,13,0,1 @ F,0,0,1,0,13,0,1 @ F,0,0,1,0,13,0,1 @ F,0,0,1,0,13,0,1 @ F,0,0,1,0,13,0,1 @ F,0,0,1,0,13,0,1 @ F,0,0,1,0,13,0,1 @ F,0,0,1,0,13,0,1 @ F,0,0,1,0,13,0,1 @ F,0,0,1,0,13,0,1 @ F,0,0,1,0,13,0,1 @ F,0,0,1,0,13,0,1 @ F,0,0,1,0,13,0,1 @ F,0,0,1,0,13,0,1 @ F,0,0,1,0,13,0,1 @ F,0,0,1,0,13,0,1 @ F,0,0,1,0,13,0,1 @ F,0,0,1,0,13,0,1 @ F,0,0,1,0,13,0,1 @ F,0,0,1,0,13,0,1"
       unit="px"
       method="auto"
       mode="F"
       radius="0"
       chamfer_steps="1"
       flexible="false"
       use_knot_distance="true"
       apply_no_radius="true"
       apply_with_radius="true"
       only_selected="true"
       hide_knots="false" />
    <inkscape:path-effect
       effect="fillet_chamfer"
       id="path-effect1409"
       is_visible="true"
       lpeversion="1"
       satellites_param="F,0,0,1,0,15,0,1 @ F,0,0,1,0,15,0,1 @ F,0,0,1,0,15,0,1 @ F,0,0,1,0,15,0,1 @ F,0,0,1,0,15,0,1 @ F,0,0,1,0,15,0,1 @ F,0,0,1,0,15,0,1 @ F,0,0,1,0,15,0,1 @ F,0,0,1,0,15,0,1 @ F,0,0,1,0,15,0,1 @ F,0,0,1,0,15,0,1 @ F,0,0,1,0,15,0,1 @ F,0,0,1,0,15,0,1 @ F,0,0,1,0,15,0,1 @ F,0,0,1,0,15,0,1 @ F,0,0,1,0,15,0,1"
       unit="px"
       method="auto"
       mode="F"
       radius="15"
       chamfer_steps="1"
       flexible="false"
       use_knot_distance="true"
       apply_no_radius="true"
       apply_with_radius="true"
       only_selected="false"
       hide_knots="false" />
  </defs>
  <sodipodi:namedview
     id="base"
     pagecolor="#ffffff"
     bordercolor="#666666"
     borderopacity="1.0"
     inkscape:pageopacity="0.0"
     inkscape:pageshadow="2"
     inkscape:zoom="0.50551985"
     inkscape:cx="857.98388"
     inkscape:cy="658.98658"
     inkscape:document-units="px"
     inkscape:current-layer="layer1"
     inkscape:document-rotation="0"
     showgrid="false"
     units="px"
     inkscape:snap-center="true"
     inkscape:snap-smooth-nodes="true"
     inkscape:object-paths="true"
     inkscape:window-width="1920"
     inkscape:window-height="1017"
     inkscape:window-x="-8"
     inkscape:window-y="-8"
     inkscape:window-maximized="1"
     showguides="false" />
  <metadata
     id="metadata5">
    <rdf:RDF>
      <cc:Work
         rdf:about="">
        <dc:format>image/svg+xml</dc:format>
        <dc:type
           rdf:resource="http://purl.org/dc/dcmitype/StillImage" />
        <dc:title />
      </cc:Work>
    </rdf:RDF>
  </metadata>
  <g
     inkscape:label="Ebene 1"
     inkscape:groupmode="layer"
     id="layer1">
    <path
       id="path1432"
       style="opacity:0.998;fill:#000000;stroke:#000000;stroke-width:6.54282;stroke-linecap:round;stroke-opacity:0;paint-order:stroke fill markers"
       inkscape:transform-center-x="2.6782398e-06"
       d="M 509.61914 60.257812 C 509.02146 60.24926 508.42204 60.25121 507.82422 60.261719 C 488.69403 60.597983 469.73354 70.688339 466.35938 90.261719 C 462.38445 113.31989 460.36252 139.87851 456.15625 163.67188 C 448.9547 204.4075 380.734 227.90906 349.97266 200.25195 C 332.00482 184.09739 314.05726 164.41746 296.72461 148.69922 C 267.2977 122.01328 212.11563 163.60325 229.66602 199.24023 C 240.00351 220.23105 253.97813 242.9092 264.56055 264.63086 C 282.6782 301.81956 241.30309 360.93079 200.16016 356.63672 C 176.1285 354.12862 150.03871 348.75893 126.77734 346.23047 C 87.284936 341.93776 67.090863 408.01813 102.23633 426.5332 C 122.93761 437.43892 147.56943 447.57085 168.89844 458.92383 C 205.41491 478.36084 206.68621 550.50357 170.87695 571.21289 C 149.9607 583.30923 125.69955 594.30062 105.39453 605.92773 C 70.921296 625.66794 93.426032 690.99733 132.74219 685.31836 C 155.9001 681.97336 181.78229 675.68995 205.71094 672.33789 C 246.67822 666.59887 290.11016 724.21923 273.3125 762.02148 C 263.50096 784.10194 250.337 807.25415 240.74414 828.5957 C 224.4577 864.82871 281.06185 904.45187 309.53125 876.74805 C 326.30026 860.42997 343.54523 840.13425 360.93359 823.35742 C 390.70349 794.63452 459.70978 815.72161 468.33984 856.17773 C 473.38071 879.80825 476.33765 906.27751 481.12109 929.18164 C 489.24235 968.06773 558.32779 966.85578 565.07617 927.70898 C 569.05106 904.65088 571.07486 878.09224 575.28125 854.29883 C 582.48272 813.56327 650.70346 790.06164 681.46484 817.71875 C 699.4326 833.87336 717.38415 853.55135 734.7168 869.26953 C 764.14367 895.95549 819.31992 854.36354 801.76953 818.72656 C 791.43207 797.73571 777.45933 775.06147 766.87695 753.33984 C 748.7593 716.15111 790.13638 657.04003 831.2793 661.33398 C 855.31097 663.84208 881.39875 669.2079 904.66016 671.73633 C 944.15252 676.02904 964.34467 609.95062 929.19922 591.43555 C 908.49795 580.52983 883.86612 570.39802 862.53711 559.04492 C 826.0206 539.60795 824.75134 467.46518 860.56055 446.75586 C 881.47683 434.65956 905.73596 423.66621 926.04102 412.03906 C 960.51419 392.29885 938.01143 326.97338 898.69531 332.65234 C 875.53735 335.99741 849.65321 342.27684 825.72461 345.62891 C 784.75737 351.36793 741.32531 293.74956 758.12305 255.94727 C 767.93459 233.86685 781.10441 210.71264 790.69727 189.37109 C 806.9837 153.13807 750.37378 113.51492 721.9043 141.21875 C 705.13533 157.53681 687.89035 177.83256 670.50195 194.60938 C 640.73205 223.33221 571.72569 202.24715 563.0957 161.79102 C 558.05487 138.16049 555.09797 111.69133 550.31445 88.787109 C 546.38074 69.951696 528.14717 60.522968 509.61914 60.257812 z M 515.71875 346.77539 A 162.20926 162.20926 0 0 1 677.92773 508.98438 A 162.20926 162.20926 0 0 1 515.71875 671.19336 A 162.20926 162.20926 0 0 1 353.50977 508.98438 A 162.20926 162.20926 0 0 1 515.71875 346.77539 z "
       transform="scale(0.26458333)" />
  </g>
</svg>
